<svg xmlns="http://www.w3.org/2000/svg" viewBox="-12.197 2.747 511.998 512" xmlns:bx="https://boxy-svg.com">
  <defs></defs>
  <path d="M 421.237 293.5 C 421.237 406.094 329.961 497.37 217.368 497.37 C 104.774 497.37 13.498 406.094 13.498 293.5 C 13.498 180.907 104.774 89.631 217.368 89.631 C 260.403 89.631 302.46 97.147 333.532 123.047 C 363.706 98.388 423.722 35.196 423.722 35.196 C 442.121 21.051 465.49 10.188 484.738 29.988 C 512.656 58.708 480.687 94.976 480.687 94.976 L 391.173 179.881 C 410.828 213.77 421.237 254.598 421.237 293.5 Z" style="fill: rgb(106, 106, 106); stroke-width: 7px;"></path>
  <ellipse style="stroke-width: 3px; fill: rgb(54, 54, 54);" cx="220.322" cy="297.566" rx="159.38" ry="159.38"></ellipse>
  <g id="Layer_1" transform="matrix(1, 0, 0, 1, 161.505463, 97.21595)">
    <g id="SVGRepo_bgCarrier" stroke-width="0" transform="matrix(1, 0, 0, 1, -173.703568, -94.469414)"></g>
    <g id="SVGRepo_tracerCarrier" stroke-linecap="round" stroke-linejoin="round" transform="matrix(1, 0, 0, 1, -173.703568, -94.469414)"></g>
    <g id="SVGRepo_iconCarrier" transform="matrix(1, 0, 0, 1, -173.703568, -94.469414)">
      <g>
        <g>
          <circle cx="456.096" cy="55.907" r="12.306" style="stroke: rgb(176, 176, 176);"></circle>
        </g>
      </g>
      <g>
        <g>
          <path d="M 218.238 126.22 C 125.855 126.22 50.696 201.379 50.696 293.762 C 50.696 386.145 125.855 461.305 218.238 461.305 C 310.621 461.305 385.78 386.145 385.78 293.762 C 385.78 201.379 310.621 126.22 218.238 126.22 Z M 218.238 430.888 C 142.627 430.888 81.113 369.373 81.113 293.762 C 81.113 218.151 142.627 156.637 218.238 156.637 C 293.849 156.637 355.363 218.151 355.363 293.762 C 355.362 369.374 293.849 430.888 218.238 430.888 Z"></path>
        </g>
      </g>
      <g>
        <g>
          <path d="M511.999,55.606c-0.001-14.853-5.785-28.817-16.288-39.319C485.21,5.784,471.247,0,456.392,0 c-14.855,0-28.818,5.784-39.322,16.286l-88.91,88.917c-33.292-19.453-71.036-29.679-109.922-29.679 c-58.293,0-113.097,22.699-154.316,63.92c-41.219,41.22-63.921,96.024-63.921,154.317s22.701,113.097,63.921,154.317 C105.141,489.3,159.944,512,218.238,512c58.293,0,113.097-22.701,154.317-63.921c41.219-41.22,63.921-96.024,63.921-154.317 c0-38.884-10.226-76.629-29.678-109.92l88.913-88.914C506.215,84.424,511.999,70.459,511.999,55.606z M474.203,73.421 L367.95,179.673l6.881,10.367c20.429,30.775,31.226,66.641,31.226,103.722c0,103.564-84.257,187.821-187.82,187.821 s-187.82-84.257-187.82-187.821s84.257-187.82,187.82-187.82c37.081,0,72.947,10.798,103.725,31.227l10.367,6.882L438.58,37.794 c4.757-4.757,11.083-7.377,17.812-7.377c6.729,0,13.054,2.62,17.811,7.379c4.758,4.757,7.379,11.083,7.379,17.811 S478.961,68.663,474.203,73.421z"></path>
        </g>
      </g>
    </g>
  </g>
  <text style="fill: rgb(189, 189, 189); font-family: &quot;Helvetica Neue&quot;; font-size: 116px; font-weight: 900; text-transform: uppercase; white-space: pre; text-decoration: color(srgb 1 1 1 / 0.8); visibility: hidden;" x="102.428" y="337.51">PAN</text>
  <path d="M 210.87 342.23 H 303.485 L 303.485 309.848 L 350.601 376.771 L 303.485 443.694 L 303.485 411.312 H 210.87 V 342.23 Z" bx:shape="arrow 210.87 309.848 139.731 133.846 69.082 47.116 0 1@8b7679ae" style="fill: rgb(158, 155, 155); transform-origin: 277.144px 314.985px; stroke: rgb(0, 0, 0);" transform="matrix(0.707107, 0.707107, -0.707107, 0.707107, -55.808139, -8.162238)"></path>
  <path d="M 207.523 349.042 H 298.668 L 298.668 316.015 L 345.036 384.27 L 298.668 452.525 L 298.668 419.499 H 207.523 V 349.042 Z" bx:shape="arrow 207.523 316.015 137.513 136.51 70.457 46.368 0 1@38751798" style="stroke-width: 1; fill: rgb(158, 155, 155); transform-origin: 271.578px 323.816px; stroke: rgb(0, 0, 0);" transform="matrix(-0.707107, -0.707107, 0.707107, -0.707107, -91.749487, -28.262924)"></path>
</svg>
